<svg xmlns="http://www.w3.org/2000/svg" xmlns:xlink="http://www.w3.org/1999/xlink" viewBox="0 0 420.3 472.52">
  <defs>
    <radialGradient id="a">
      <stop style="stop-color:#fff;stop-opacity:.34167" offset="0"/>
      <stop style="stop-color:#fff;stop-opacity:0" offset="1"/>
    </radialGradient>
    <radialGradient id="c" xlink:href="#a" gradientUnits="userSpaceOnUse" cy="198.42" cx="180.25" gradientTransform="scale(.79355 1.2602)" r="101.58"/>
    <radialGradient id="d" xlink:href="#a" gradientUnits="userSpaceOnUse" cy="167.47" cx="360.86" gradientTransform="scale(1.007 .99307)" r="46.394"/>
    <linearGradient id="b">
      <stop style="stop-color:#fff;stop-opacity:0" offset="0"/>
      <stop style="stop-color:#ffa617;stop-opacity:.73333" offset="1"/>
    </linearGradient>
    <linearGradient id="e" y2="405.77" xlink:href="#b" gradientUnits="userSpaceOnUse" x2="463.26" gradientTransform="scale(.74493 1.3424)" y1="248.25" x1="465.29"/>
    <linearGradient id="f" y2="231.63" xlink:href="#b" gradientUnits="userSpaceOnUse" x2="155.41" gradientTransform="scale(1.4586 .68561)" y1="120.96" x1="157.81"/>
  </defs>
  <path style="stroke-linejoin:round;fill-rule:evenodd;stroke:#000;stroke-width:10;fill:#df3511" d="M198.45 81.882s93.52-19.12 110.9-16.626c69.53 6.65 120.01 63.184 139.87 133.84 16.56 117.22-73.69 223.66-81.1 240.26-9.48 14.97-76.15 26.6-94.35 39.07-11.59 9.14-89.44-1.22-107.6-13.3-198.63-177.91-118.35-344.17-48-365.79 43.87-14.964 80.28-17.458 80.28-17.458z" transform="translate(-35.947 -14.391)"/>
  <path style="fill-rule:evenodd;stroke-width:1pt;fill:url(#c)" d="M168.73 143.36C81.887 52.157 36.05 278.23 78.411 355.16c57.109 75.66 233.88-46.87 90.319-211.8z" transform="translate(-35.947 -14.391)"/>
  <path style="fill-rule:evenodd;stroke-width:1pt;fill:url(#d)" d="M394.91 132.14c-22.03-28.72-102.04-4.16-71.31 59.51 19.06 31.22 125.41 38.33 71.31-59.51z" transform="translate(-35.947 -14.391)"/>
  <path style="fill-rule:evenodd;stroke-width:1pt;fill:url(#e)" d="M275 470.93c35.59-69 47.17-142.15 63.73-152.13 10.76 6.65 5.79 84.8 20.69 118.88-12.42 9.15-63.73 24.11-84.42 33.25z" transform="translate(-35.947 -14.391)"/>
  <path style="fill-rule:evenodd;stroke-width:1pt;fill:url(#f)" d="M196.8 128.44s-20.69-11.64-19.04-18.29c14.07 4.99 22.35 12.47 27.31 9.14 4.97-3.32 4.97 9.15 9.11-6.65 4.13-15.794 15.72-33.252 14.07-15.794-1.66 20.784 6.62 24.944 24 9.144 17.38-15.794 24-11.638 19.03 9.15-24.83 27.43-80.28 19.12-74.48 13.3z" transform="translate(-35.947 -14.391)"/>
  <path style="stroke-linejoin:round;stroke:#000;stroke-width:10;fill:none" d="M163.69 120.12c75.32 26.61 62.9 13.3 144.01-8.31" transform="translate(-35.947 -14.391)"/>
  <path style="stroke-linejoin:round;fill-rule:evenodd;stroke:#000;stroke-width:10;fill:#4a2a00" d="M225.44 132.32c-3.31-19.95 35.08-111.24 46.66-112.9 7.45-.831 40.55 16.108 21.11 26.715 0 8.839-7.45-1.663-12.42 1.663-11.58 12.47-30.94 51.437-37.56 82.192l-17.79 2.33z" transform="translate(-35.947 -14.391)"/>
</svg>
