<svg xmlns="http://www.w3.org/2000/svg" viewBox="0 0 366.74 252.68" version="1.0">
  <g fill-rule="evenodd">
    <path d="M295.979.01c-17.16 3.3-23.55 20.49-30.36 34.11-11.07 11.49-28.35 12.9-40.86 22.32-52.74 26.34-115.23 14.52-168.57-3.78-18.147.36-44.598-3-54.909 15.06-6.12 18.33 11.28 35.37 19.977 46.77-14.085 13.89-7.752 39.27 4.209 52.83 16.125 20.64 44.481 25.5 66.543 34.23 29.4 49.59 96.93 60.51 148.71 43.89 44.79-10.77 88.53-34.68 110.43-77.13 17.61-27.45 23.52-67.86.63-94.05-20.52-10.41-19.86-35.37-22.2-54.81-5.58-12.33-20.94-18.75-33.6-19.44z"/>
    <path d="M292.745 40.146s2.443 35.432-7.331 42.762-81.86 80.027-81.86 80.027l13.44 15.272 87.358-59.256 6.72-77.583-18.327-1.222z" fill="#ffc701"/>
    <path opacity=".7" d="M292.743 40.146s2.443 35.432-7.33 42.762-81.86 80.027-81.86 80.027l13.44 15.272 87.357-59.256 6.72-77.583-18.327-1.222z"/>
    <path d="m289.548 16.932-22.31 33.477s-17.875 4.441-26.94 10.074c-9.06 5.632-37.527 26.42-100.516 21.961S67.434 64.527 53.787 64.032c-13.653-.495-34.297 1.881-39.3 5.693-5.004 3.806.979 15.285.979 15.285s18.308 41.18 84.95 58.071c66.636 16.891 145.539-17.985 145.539-17.985L301.05 23.91l-11.503-6.977z" fill="#ffc701"/>
    <path opacity=".4" d="m287.776 19.596-20.544 30.813s-17.875 4.447-26.934 10.08c-9.066 5.632-37.521 26.415-100.51 21.949-62.989-4.46-72.354-17.905-86.007-18.4-13.647-.495-34.282 1.875-39.286 5.687a4.984 4.984 0 0 0-.61.575c11.78-1.711 29.15-1.363 41.368.86 23.452 4.259 44.962 18.474 99.655 16.99 77.723-2.132 86.838-26.348 97.663-29.207 15.046-3.983 43.434-9.817 35.205-39.347z" fill="#fff"/>
    <path opacity=".4" d="M37.28 111.657c13.153 11.423 33.282 23.855 63.136 31.424 7.184 1.82 14.521 3.03 21.876 3.757l23.648-4.796c-39.274 6.152-87.058-17.874-108.66-30.385z"/>
    <path d="M294.577 40.757s12.829 33.599 9.164 42.151-25.047 57.424-64.755 75.75-141.726 15.884-144.17 10.997 0 46.427 61.7 65.365 140.56-22.548 154.555-36.043c17.716-17.105 51.315-61.089 41.54-94.077s-17.104-23.213-22.602-32.377-11.607-26.879-11.607-34.21-23.214 2.444-23.825 2.444z" fill="#ffc701"/>
    <path opacity=".6" d="M297.984 95.12c-9.28 18.113-28.846 49.61-59.006 63.533-39.708 18.326-141.726 15.883-144.17 10.996-.61-1.222-.904 1.075-.055 5.498l.019.073 1.258 4.203s-.098.006-.226.055c.061.22.14.464.208.69.091.3.17.587.269.898.17.55.384 1.136.592 1.717.067.195.116.39.19.592.134.379.305.77.458 1.161.17.452.323.91.513 1.374.134.336.3.679.44 1.015.195.452.385.891.592 1.356.098.22.202.446.306.666a70.487 70.487 0 0 0 2.236 4.447c.018.043.048.08.073.116.012.018.012.037.018.055.22.403.452.8.69 1.203.019.037.037.08.055.116.245.428.501.85.764 1.277.281.458.562.935.861 1.4 0 .005.013.005.019.017.28.44.562.886.855 1.332.006.006.018 0 .024 0 24.919 10.941 113.296-10.037 152.949-39.036 27.911-20.416 37.069-48.773 40.068-64.754z"/>
    <path opacity=".4" d="M313.916 35.583c-.983.018-2.089.146-3.244.342 3.83 11.765 22.2 69.012 20.557 79.971-1.833 12.218-21.277 56.63-53.148 75.75-21.38 12.83-67.808 32.989-84.302 36.043-10.434 1.93-30.863 4.777-46.825 3.953a121.963 121.963 0 0 0 9.56 3.378c61.7 18.938 140.56-22.548 154.555-36.043 17.716-17.105 51.315-61.089 41.541-94.077s-17.105-23.213-22.603-32.377S318.4 45.644 318.4 38.313c0-2.064-1.833-2.78-4.484-2.73z"/>
    <path d="M297.63 46.866s-11.607 11.607-8.553 22.603 13.44 37.875-25.046 68.42-150.279 83.691-225.418 25.657c-21.38-24.436-9.162-40.319-9.162-40.319s12.21-1.765 17.103-1.222c6.109-1.832 34.82 0 61.7 1.222 35.988-.709 134.396-46.428 153.333-64.143 0 0 23.214-28.101 23.825-32.988s16.494 9.774 17.105 14.05-4.887 6.109-4.887 6.72z" fill="#ffc701"/>
    <path opacity=".4" d="M286.304 25.112c-.495.061-.819.367-.898.977-.61 4.888-23.825 32.988-23.825 32.988-18.937 17.716-117.346 63.435-153.333 64.144-26.88-1.222-55.591-3.055-61.7-1.222-4.893-.544-17.104 1.222-17.104 1.222s-.223.324-.554.88c6.693 1.954 18.88 4.685 38.581 5.21 45.444 1.204 64.528-1.264 103.93-16.61 41.315-16.09 96.71-36.775 118.434-86.172-1.472-.94-2.737-1.509-3.531-1.417z" fill="#fff"/>
    <path opacity=".4" d="M288.735 67.789c-4.997 17.184-25.236 62.659-102.898 89.037-94.957 32.249-118.097 13.702-148.77 4.869.5.605 1.002 1.228 1.546 1.85 75.139 58.035 186.932 4.888 225.418-25.657s28.1-57.423 25.046-68.42a14.891 14.891 0 0 1-.342-1.68z"/>
    <path d="M298.442 11.91c-3.512-.916-15.73 8.736-15.516 11.968.214 3.226 11.888 13.696 19.286 16.22 2.443.61 15.883-.612 16.494-3.055s.61-12.829-1.833-15.273-14.344-8.796-18.43-9.86z" fill="#884a13"/>
    <path d="M298.442 11.91c-3.512-.916-15.73 8.736-15.516 11.968.214 3.226 11.888 13.696 19.286 16.22 2.443.61 15.883-.612 16.494-3.055s.61-12.829-1.833-15.273-14.344-8.796-18.43-9.86z" fill="#884a13"/>
    <path opacity=".3" d="M297.691 11.856c-4.24.317-14.96 8.992-14.76 12.022.086 1.301 2.041 3.763 4.815 6.414.17-5.094 2.7-12.48 14.484-16.952-1.521-.672-2.853-1.191-3.775-1.43a2.346 2.346 0 0 0-.764-.054z" fill="#fff"/>
    <path opacity=".4" d="M316.836 21.74c.092 11.155-9.487 15.859-16.109 17.777a18.75 18.75 0 0 0 1.485.592c2.443.611 15.883-.61 16.494-3.054s.61-12.829-1.833-15.272a.228.228 0 0 0-.037-.043z"/>
  </g>
</svg>
