<svg xmlns="http://www.w3.org/2000/svg" xml:space="preserve" viewBox="0 0 264 266.25">
  <path fill="#010101" clip-rule="evenodd" fill-rule="evenodd" d="m50.25 50.25-1.5-6v-7.5l.75-7.5L51 24l-2.25-2.25-3-1.5h-6L38.25 30l-1.5 13.5L39 60l5.25 15-6-.75-7.5 1.5L24 79.5l-7.5 6L12 93l-2.25 9 .75 9 4.5 11.25-5.25 5.25L6 135l-1.5 9 1.5 9 3 8.25 4.5 7.5L21 174l9.75 3-3.75 3-3 4.5-3.75 5.25-2.25 6-.75 7.5 1.5 7.5 3 9L27 228l8.25 6.75 7.5 3.75 9 .75 8.25-.75 8.25-3.75 6-5.25 5.25-6 1.5-6.75 7.5 1.5 3 .75h.75v6.75l2.25 6.75 5.25 6.75 6.75 5.25 9 4.5 9 1.5 10.5-2.25 9-6.75 2.25 5.25L150 252l5.25 4.5 7.5 3 7.5 1.5 8.25-1.5 8.25-3.75L195 249l3.75 3.75 4.5 2.25 5.25 1.5h6l6-.75 10.5-4.5 3-2.25 3-3 1.5-3.75 2.25-3.75 1.5-9-.75-5.25-1.5-4.5-3.75-5.25 4.5.75 5.25-1.5 5.25-2.25 3.75-3.75 3.75-5.25 3-6L264 189v-6.75l-.75-5.25-2.25-4.5-2.25-5.25-2.25-3.75-6-6-3.75-1.5-3-.75 5.25-6.75 2.25-10.5v-11.25L247.5 117l-3-3.75-1.5-3-2.25-3-3.75-3.75-4.5-1.5-1.5-.75 3-3.75 1.5-3.75 1.5-5.25v-12l-2.25-6-3-6L228 60l-5.25-4.5-5.25-3-4.5-2.25-4.5-.75h-5.25l-3.75.75-9 4.5-1.5-4.5-4.5-9-3-3.75-3.75-3.75-4.5-3-3.75-3-5.25-1.5-6-.75H153l-5.25.75-4.5 2.25-5.25 3-3.75 3-3.75 5.25-3 6-3-1.5-2.25-1.5H120l-1.5-.75 2.25-2.25 4.5-6 4.5-7.5 1.5-3L132 21l.75-1.5-3-3-3-2.25-3-1.5H123L125.25 9l.75-3.75V0h-9l-10.5 3-5.25 3-6 3.75-4.5 3.75L87 17.25l-.75-3v-3l-.75-1.5v-1.5l-3.75 2.25-4.5 3L72 17.25l-6 4.5-5.25 6-4.5 6-4.5 7.5z"/>
  <path fill="#010101" clip-rule="evenodd" fill-rule="evenodd" d="m45.75 56.25-1.5-6.75V42l.75-6.75 2.25-6-3-2.25-3-1.5h-3l-3 .75-2.25 9V49.5l1.5 15.75L39.75 81 33 79.5 26.25 81l-7.5 3.75-6.75 6-4.5 7.5-3 9L6 117l4.5 10.5-6 5.25-3 8.25-1.5 8.25.75 9 3 9 6 6.75 6.75 5.25 10.5 3-4.5 3-3.75 4.5-3 5.25-2.25 6.75-.75 6.75.75 8.25 3 8.25 6 8.25 7.5 7.5 8.25 3.75 9 .75 8.25-1.5 7.5-3 6.75-5.25 4.5-6.75L76.5 222l3 1.5h3.75l3.75.75h1.5l-.75 6.75 2.25 6.75 5.25 6.75 6.75 6 8.25 4.5 9.75.75 9.75-2.25 10.5-6 1.5 5.25 3.75 5.25 5.25 3.75 7.5 3 7.5 1.5 8.25-.75 8.25-3.75 8.25-7.5 3 4.5 5.25 2.25 5.25.75h6l6-.75 5.25-1.5 4.5-3 3.75-2.25 2.25-3 2.25-3.75 1.5-3.75 1.5-4.5.75-4.5-.75-4.5-2.25-4.5-3-5.25h4.5l5.25-.75 4.5-3 5.25-3.75 3.75-5.25 2.25-6 1.5-6.75v-7.5l-.75-5.25-1.5-5.25-1.5-3.75-6-7.5-3-2.25-3.75-2.25-3.75-.75 5.25-6 3-10.5-.75-12-3-9.75-2.25-3-3-3.75-2.25-2.25L234 111l-2.25-1.5-1.5-1.5-1.5-.75h-2.25l3-3.75L231 99l1.5-5.25v-6l-.75-6-1.5-6-3-5.25-4.5-5.25-5.25-4.5-4.5-3-4.5-1.5-5.25-1.5h-4.5l-4.5 1.5-3.75 1.5-4.5 3-1.5-4.5-2.25-4.5-6-9-3-3.75-4.5-3-4.5-2.25L159 31.5h-10.5l-5.25.75-5.25 1.5-4.5 3-3.75 3.75L126 45l-3 6-2.25-1.5-3-.75-2.25-.75-.75-.75 1.5-1.5 4.5-6 3.75-7.5 2.25-3 .75-3 .75-1.5-6-4.5-2.25-1.5-1.5-.75 2.25-3.75.75-3.75V6l-3.75-.75-10.5 1.5-10.5 4.5-10.5 7.5-3.75 4.5-.75-3.75-.75-3-.75-1.5v-.75l-3 2.25-5.25 3-4.5 3.75-6 4.5L56.25 33l-4.5 6.75-3.75 7.5z"/>
  <path fill="#035946" clip-rule="evenodd" fill-rule="evenodd" d="M42.75 23.25h1.5l1.5 1.5 2.25.75-.75 3.75-.75 6V42l.75 7.5.75 9 3 9L54.75 78 60 87.75 59.25 90l-1.5 2.25-.75 1.5-.75.75-3-6-3-6.75-3-7.5-3-8.25L42 57l-.75-10.5V35.25z"/>
  <path fill="#5D8E76" clip-rule="evenodd" fill-rule="evenodd" d="m117 12.75-4.5-.75-3.75.75-4.5 1.5-9 9-4.5 6.75-6 9.75L78 51l3-2.25 3.75-2.25 4.5-2.25L94.5 42l5.25-1.5 5.25-.75h5.25l4.5 1.5L117 39l1.5-3 2.25-3 2.25-3.75 3-6 .75-2.25.75-1.5-3.75-3.75-3-2.25z"/>
  <path fill="#035946" clip-rule="evenodd" fill-rule="evenodd" d="m78 51 6.75-11.25 6-9.75 4.5-6.75 9-9 4.5-1.5 3.75-.75 4.5.75 2.25-2.25 1.5-2.25.75-2.25V4.5l-4.5.75-5.25.75-4.5 1.5-4.5 2.25-4.5 3-3.75 3-4.5 4.5-4.5 6-.75-3.75-1.5-3-.75-3v-.75l-6.75 4.5-6.75 6L63 33l-4.5 7.5-3 8.25-.75 9.75 2.25 12L63 84l2.25-3v-4.5l1.5-9 1.5-3.75L70.5 60l1.5-3.75 3-3z"/>
  <path fill="#2C285D" clip-rule="evenodd" fill-rule="evenodd" d="m144.75 234.75-1.5 3-2.25 3-3.75 2.25-3.75 1.5-4.5 1.5-5.25.75-5.25-.75-9-4.5-3.75-3-3-3.75-3-5.25-1.5-3.75-.75-3v-4.5l.75-3h-12l-6-1.5-5.25-3-5.25-4.5-4.5-4.5-3.75-5.25-3-6.75-3-9-.75-9L57 163.5l3.75-7.5-.75 4.5 2.25 7.5 3.75 8.25 6 8.25 7.5 6.75 9.75 5.25 11.25 2.25 13.5-1.5-5.25 4.5-2.25 6.75.75 8.25 3 9 5.25 6.75 8.25 5.25 9.75.75zm-75-9-2.25 3-3 2.25-3.75 1.5-3.75 2.25-3.75.75h-4.5l-3.75-.75-4.5-2.25-6-3.75-4.5-5.25-4.5-6-2.25-6-1.5-6-.75-5.25.75-5.25.75-3.75 2.25-2.25.75-2.25 4.5-4.5-.75 6 1.5 7.5 3 9L39 213l6 7.5 7.5 5.25 8.25 2.25zm-15-69.75-1.5 3-2.25 3-.75 3v3L39 171.75 34.5 174l-5.25-1.5-4.5-2.25-4.5-3-3.75-3-3-3.75-3-4.5-.75-3.75-.75-4.5v-4.5l.75-4.5 2.25-6 3-5.25 3.75-5.25 5.25-4.5 6-3.75 6-2.25-4.5 5.25-3 6-.75 6.75 1.5 7.5 3 6.75 6 5.25 6.75 4.5zm183 78.75-3 4.5-3.75 4.5-5.25 3.75-5.25 3-6.75 1.5-6-.75-6-2.25-6-6-3.75 3-3 3-3 2.25-3.75 2.25-3 1.5-3.75.75-4.5.75-3.75-.75-6-1.5-6-3L153 249l-2.25-3-1.5-3-.75-4.5 1.5-2.25 2.25-3.75.75-3.75v-5.25l3 3.75 4.5 4.5 5.25 3.75 7.5 3L180 240l7.5-1.5 6.75-3.75 6-8.25 1.5 5.25 3 4.5 3.75 4.5L213 243l5.25 1.5 6-.75 6.75-3zM214.5 177l-.75 3.75-3 7.5-2.25 3.75-6.75 6.75-7.5 3-6.75.75-7.5-1.5-6.75-3-5.25-3.75-4.5-3.75-2.25-3-5.25 3.75-4.5 2.25-4.5.75-5.25.75-9-1.5-3.75-.75-3-1.5-6.75-6.75-3.75-4.5-3-6-2.25-6.75v-6.75l1.5-7.5 5.25-6.75.75-.75v-.75h.75l-1.5 4.5-.75 6.75 1.5 7.5 3 6 5.25 6 6.75 3 11.25-.75 13.5-4.5L159 177l5.25 5.25 6.75 4.5 8.25 3.75 9.75.75 9.75-.75 9-3.75 7.5-7.5z"/>
  <path fill="#2C285D" clip-rule="evenodd" fill-rule="evenodd" d="m246 125.25-3.75 14.25-6.75 6.75-7.5 1.5-8.25-3.75-8.25-6-7.5-7.5-5.25-8.25-2.25-7.5-.75.75-.75 3-.75 4.5-.75 5.25-12 3.75-9.75 1.5-7.5-1.5-5.25-3.75-4.5-5.25-3-6-2.25-6.75-2.25-7.5-2.25 4.5-.75 4.5V117l-10.5 3.75-9 1.5-6.75-1.5-6-3-4.5-3.75-3-5.25-1.5-3.75.75-4.5-3.75 8.25-2.25 7.5-.75 6.75v6l1.5 6 3 5.25 3 4.5 5.25 3 2.25-1.5 2.25-3 3-3 3.75-3 9-4.5 6-.75H141l.75-3.75 1.5-4.5 1.5-3v-1.5l1.5 5.25.75 4.5.75 3.75.75 1.5 2.25.75 2.25 1.5 3 1.5 4.5 3 3.75 3.75 6-3 2.25-1.5 6-1.5h9.75l1.5-1.5 1.5-3 2.25-2.25v-.75l1.5 9 2.25 1.5 3 1.5 3 3 3.75 2.25 3 3 2.25 3 2.25 2.25.75 2.25 7.5-3 6-1.5H234l1.5.75h1.5l5.25-6 3-9 1.5-8.25zm6 78.75-2.25 1.5-2.25 2.25-3 .75-1.5.75-2.25 1.5h-6l-1.5-2.25-2.25-3-5.25-5.25-2.25-3-3-3-3-2.25-2.25-1.5 2.25-5.25L219 177v-8.25l-.75-5.25 3-2.25 3-.75 3-1.5 3-.75-3.75 4.5-1.5 6.75v7.5l.75 9 3 7.5 6 6.75 6.75 3.75zM187.5 66.75 189 72l3 5.25 4.5 5.25 5.25 5.25 6 3.75 6.75 1.5h8.25l9.75-4.5-1.5 6-1.5 3-2.25 3-2.25-.75-3.75-.75h-12l-3.75.75-3 .75-3 2.25-1.5-6-1.5-3.75-1.5-3-2.25-3-2.25-2.25-3-2.25-3-1.5.75-4.5v-6L183 72.75 180 75l-6 3-3.75 1.5-4.5 1.5-3.75.75h-4.5l-3.75.75-3.75-.75h-3l-2.25-.75-2.25-1.5L141 78l-2.25-1.5-.75-.75-5.25 5.25h-6l-2.25.75H123l-2.25.75h-2.25l-2.25 1.5-2.25-3-4.5-2.25-5.25-3-6-2.25-6.75-.75-7.5.75-7.5 1.5-8.25 3.75.75-5.25 3-6 3.75-6.75 4.5-6V60l3 3.75 5.25 3.75 7.5 3 8.25 1.5h9l9-2.25L130.5 66l1.5 1.5.75 1.5 1.5 1.5h.75l5.25 2.25 6 .75 6 1.5h14.25l7.5-2.25 6.75-2.25zm-94.5 48-.75 6v12.75l1.5 5.25-3-.75-2.25-.75h-3l-3 .75h-3l-3 .75-2.25 1.5L72 141l-3-2.25-3-3-3-3.75-3-6-1.5-6-1.5-6.75 1.5-8.25 3-8.25v3.75L63 105l2.25 5.25L69 114l4.5 3.75 6 1.5 6-.75zm-54.75-13.5-3 1.5-3 2.25-3 1.5-2.25 2.25-3 2.25-4.5 4.5-1.5 2.25-2.25-3.75-1.5-4.5-.75-4.5.75-5.25 1.5-5.25L18 90l3-4.5 4.5-3-2.25 3-.75 3v3l4.5 6 3 2.25 3.75 1.5z"/>
  <path fill="#662D91" clip-rule="evenodd" fill-rule="evenodd" d="m122.25 195.75 7.5 1.5 3 1.5 3.75 1.5 3 2.25 4.5 6 2.25 3.75 1.5 6v5.25l-.75 6-2.25 5.25-11.25 3.75-9.75-.75-8.25-5.25-5.25-6.75-3-9-.75-8.25 2.25-6.75 5.25-4.5-13.5 1.5-11.25-2.25-9.75-5.25-7.5-6.75-6-8.25-3.75-8.25-2.25-7.5.75-4.5 1.5-1.5.75-2.25 2.25-1.5 3-3 2.25-1.5 1.5-.75 6.75-2.25 4.5-.75h4.5l9 1.5 4.5 2.25 3.75 1.5 3.75 3-1.5 5.25-.75 5.25v6l.75 5.25 2.25 6 3 5.25L117 189l6 4.5v1.5zm-52.5 30L72 223.5l2.25-3 .75-2.25.75-3L69 211.5l-6-6-4.5-6-3-6-2.25-6.75-1.5-6-.75-4.5v-3.75h-3.75l-6 1.5-3 1.5-4.5 3-3.75 3.75-.75 6 1.5 7.5 3 9L39 213l6 7.5 7.5 5.25 8.25 2.25zm-15-69.75 8.25-8.25 2.25-1.5.75-1.5 2.25-.75-3.75-2.25-3.75-3.75-3-4.5-2.25-5.25-1.5-4.5-1.5-9v-2.25l-2.25-.75H48l-2.25-.75h-7.5l-2.25.75-4.5 5.25-3 6-.75 6.75 1.5 7.5 3 6.75 6 5.25 6.75 4.5zm183 78.75.75-5.25-1.5-6-2.25-5.25-3.75-6-9.75-9.75-5.25-3.75-4.5-3.75-2.25 2.25-6 4.5-3.75 1.5v2.25l.75 3.75 1.5 5.25-1.5 4.5-.75-3.75-1.5-3-2.25-3.75-3.75-3h-7.5l-3.75-.75-7.5-3-3.75-2.25-3-2.25-3-2.25h-2.25l-2.25.75-3 1.5-2.25 1.5-3 .75-1.5 2.25-3 3 3 4.5 2.25 4.5L153 219v4.5l3 3.75 4.5 4.5 5.25 3.75 7.5 3L180 240l7.5-1.5 6.75-3.75 6-8.25 1.5 5.25 3 4.5 3.75 4.5L213 243l5.25 1.5 6-.75 6.75-3zM214.5 177v-9l-2.25-6.75-3.75-6-2.25-3-4.5-4.5-10.5-4.5-6-.75h-6.75l-7.5 2.25-6.75 5.25-3-3-4.5-3.75-10.5-6-6.75-.75-6.75.75-6.75 2.25-7.5 5.25-1.5 4.5-.75 6.75 1.5 7.5 3 6 5.25 6 6.75 3 11.25-.75 13.5-4.5L159 177l5.25 5.25 6.75 4.5 8.25 3.75 9.75.75 9.75-.75 9-3.75 7.5-7.5zm31.5-51.75-.75-3-4.5-9-2.25-3-6-4.5-4.5-1.5-3-1.5-3.75-.75h-7.5l-3.75.75-4.5 1.5-3.75 3L198 111l-.75-3.75-1.5-4.5-1.5-3.75-1.5-3-4.5-6-3-3-3.75-1.5-3-1.5h-15l-5.25 1.5-4.5 2.25L150 91.5l-3 4.5-2.25-3.75-4.5-3L135 87h-6.75l-6.75.75-6.75 2.25-6 4.5-5.25 6-.75 4.5 1.5 3.75 3 5.25 4.5 3.75 6 3 6.75 1.5 9-1.5L144 117v-5.25l.75-4.5 2.25-4.5 2.25 7.5 2.25 6.75 3 6 4.5 5.25 5.25 3.75 7.5 1.5 9.75-1.5 12-3.75.75-5.25.75-4.5.75-3 .75-.75 2.25 7.5 5.25 8.25 7.5 7.5 8.25 6 8.25 3.75 7.5-1.5 6.75-6.75zm6 78.75 3-4.5 3-5.25.75-6.75v-6.75l-1.5-5.25L255 171l-3-3.75-3.75-3.75-4.5-2.25L240 159l-5.25-.75h-4.5l-3.75 4.5-1.5 6.75v7.5l.75 9 3 7.5 6 6.75 6.75 3.75zM93 114.75l1.5-3.75.75-4.5 4.5-7.5 2.25-4.5 2.25-3 7.5-6-3-1.5-5.25-3-6-1.5-6.75-.75h-7.5l-6.75 3-7.5 4.5-6 7.5-.75.75V96l-.75.75v3.75L63 105l2.25 5.25L69 114l4.5 3.75 6 1.5 6-.75zm-54.75-13.5 1.5-.75L42 99l2.25-.75 1.5-.75H48l1.5-.75h3L50.25 90l-3-5.25L45 79.5l-3-.75h-8.25l-4.5 1.5-2.25 1.5-1.5.75-2.25 3-.75 3v3l4.5 6 3 2.25 3.75 1.5z"/>
  <path fill="#662D91" clip-rule="evenodd" fill-rule="evenodd" d="M232.5 88.5v-9.75L231 73.5l-1.5-4.5-3-3.75-2.25-3.75-2.25-2.25-2.25-1.5-4.5-2.25-9-1.5-3.75.75-4.5.75-7.5 4.5-3 2.25v-3L185.25 54l-4.5-8.25-3-5.25-3.75-3.75-3.75-3-4.5-2.25-4.5-.75H156l-4.5.75-5.25.75L141 34.5l-3.75 3.75-3 4.5-1.5 3.75-1.5 5.25-.75 4.5V60l.75 3-.75-1.5-3-3.75-1.5-4.5-1.5-3.75L123 48l-1.5-.75-2.25-.75-3-.75-3.75-.75-5.25-.75h-3.75l-3.75.75-3 .75-7.5 3-3 1.5-6 4.5V60l3 3.75 5.25 3.75 7.5 3 8.25 1.5h9l9-2.25L130.5 66l1.5 1.5.75 1.5 1.5 1.5h.75l5.25 2.25 6 .75 6 1.5h14.25l7.5-2.25 6.75-2.25 6.75-3.75L189 72l3 5.25 4.5 5.25 5.25 5.25 6 3.75 6.75 1.5h8.25z"/>
  <path fill="#FFF" clip-rule="evenodd" fill-rule="evenodd" d="m151.5 37.5-.75 3 2.25 2.25 3 1.5 5.25 2.25 4.5 3 2.25 2.25 3 1.5 2.25-.75 2.25-3-1.5-5.25-3-3.75-3.75-3-3-.75-4.5-1.5-1.5-.75H156l-2.25.75zm15 54-.75 3 2.25 2.25 3 1.5 5.25 2.25 3.75 3 3 2.25 3 1.5 2.25-.75 2.25-3.75L189 99l-3-4.5-3.75-3-3-.75L177 90l-1.5-.75-2.25-.75h-3.75zM123 93.75l-1.5 3L126 99l4.5 1.5 4.5 3.75 3.75 3.75 3-.75 1.5-3-1.5-4.5-3-4.5-3.75-3-4.5-1.5-3-.75-3 .75zM102 49.5l-.75 3 1.5 1.5 3 1.5 4.5 1.5 3.75 3 4.5 4.5 2.25-.75L123 60l-1.5-4.5-3-3.75-3.75-3-4.5-1.5-3.75-.75-2.25.75zM185.25 153l-.75 3.75 1.5 3 3.75 2.25 4.5 3 4.5 2.25 2.25 3 1.5 1.5 3-.75 1.5-3.75-1.5-6-3-6-5.25-3-3.75-1.5-3-.75-3 .75zM219 111l-.75 2.25 1.5 1.5 2.25.75 3.75 1.5 3.75 2.25 1.5 2.25 1.5 1.5 2.25-.75 1.5-2.25-.75-3.75-3-3.75-3-2.25-3.75-1.5-3-.75-2.25.75zM81 86.25l-.75 2.25 1.5 1.5 3 .75 3.75 1.5 3 2.25 2.25 2.25 1.5.75h2.25l.75-3-.75-3.75-2.25-3-3.75-3-3.75-.75-2.25-.75-2.25.75zM205.5 63l-.75 2.25.75.75 3 1.5 3.75 1.5 3 2.25L219 75l2.25-.75 1.5-3-.75-3.75-3-3.75-3.75-2.25-3.75-1.5h-2.25l-2.25.75zm29.25 104.25-.75 2.25.75.75 3 .75 3.75 2.25 3 2.25 2.25 1.5 1.5 1.5h2.25l1.5-3-.75-3.75-3-3.75-7.5-3-2.25-.75-2.25.75zm-76.5-3.75-3-3-1.5-2.25-12-6 .75-3 .75-2.25 3-1.5.75-.75 2.25.75 1.5.75H153l2.25.75 1.5.75 2.25 1.5 3 3-2.25 2.25-.75 3-.75 3.75z"/>
</svg>
