<svg xmlns="http://www.w3.org/2000/svg" xmlns:xlink="http://www.w3.org/1999/xlink" viewBox="0 0 395.55 469.15">
  <defs>
    <radialGradient id="W" xlink:href="#a" gradientUnits="userSpaceOnUse" cy="656.95" cx="184.54" gradientTransform="scale(1.4126 .70794)" r="21.297"/>
    <radialGradient id="b" xlink:href="#a" gradientUnits="userSpaceOnUse" cy="308.01" cx="252.94" gradientTransform="scale(.97002 1.0309)" r="156.67"/>
    <radialGradient id="c" xlink:href="#a" gradientUnits="userSpaceOnUse" cy="223.03" cx="166.63" gradientTransform="scale(1.2402 .80635)" r="22.331"/>
    <radialGradient id="d" xlink:href="#a" gradientUnits="userSpaceOnUse" cy="223.62" cx="213.34" gradientTransform="scale(1.231 .81237)" r="23.582"/>
    <radialGradient id="e" xlink:href="#a" gradientUnits="userSpaceOnUse" cy="206.02" cx="345.61" gradientTransform="scale(.98603 1.0142)" r="28.424"/>
    <radialGradient id="f" xlink:href="#a" gradientUnits="userSpaceOnUse" cy="189.93" cx="320.07" gradientTransform="scale(.93401 1.0706)" r="27.961"/>
    <radialGradient id="g" xlink:href="#a" gradientUnits="userSpaceOnUse" cy="202.63" cx="167.37" gradientTransform="scale(1.0025 .99755)" r="19.306"/>
    <radialGradient id="h" xlink:href="#a" gradientUnits="userSpaceOnUse" cy="204.01" cx="231.74" gradientTransform="scale(1.0178 .98252)" r="25.66"/>
    <radialGradient id="i" xlink:href="#a" gradientUnits="userSpaceOnUse" cy="226" cx="190.67" gradientTransform="scale(1.0441 .95776)" r="25.013"/>
    <radialGradient id="j" xlink:href="#a" gradientUnits="userSpaceOnUse" cy="234.88" cx="260.6" gradientTransform="scale(1.0469 .95516)" r="26.799"/>
    <radialGradient id="k" xlink:href="#a" gradientUnits="userSpaceOnUse" cy="241.47" cx="314.72" gradientTransform="scale(1.0525 .9501)" r="25.136"/>
    <radialGradient id="l" xlink:href="#a" gradientUnits="userSpaceOnUse" cy="217.85" cx="417.38" gradientTransform="scale(.8718 1.147)" r="20.163"/>
    <radialGradient id="m" xlink:href="#a" gradientUnits="userSpaceOnUse" cy="261.16" cx="298.84" gradientTransform="scale(1.0165 .98378)" r="25.692"/>
    <radialGradient id="n" xlink:href="#a" gradientUnits="userSpaceOnUse" cy="264.28" cx="209.39" gradientTransform="scale(1.084 .92254)" r="28.303"/>
    <radialGradient id="o" xlink:href="#a" gradientUnits="userSpaceOnUse" cy="216.76" cx="144.7" gradientTransform="scale(.94629 1.0568)" r="20.868"/>
    <radialGradient id="p" xlink:href="#a" gradientUnits="userSpaceOnUse" cy="243.96" cx="163.62" gradientTransform="scale(1.0207 .97968)" r="25.585"/>
    <radialGradient id="q" xlink:href="#a" gradientUnits="userSpaceOnUse" cy="269.03" cx="133.58" gradientTransform="scale(1.0215 .97894)" r="25.566"/>
    <radialGradient id="r" xlink:href="#a" gradientUnits="userSpaceOnUse" cy="301.27" cx="174.09" gradientTransform="scale(1.116 .89604)" r="29.098"/>
    <radialGradient id="s" xlink:href="#a" gradientUnits="userSpaceOnUse" cy="283.21" cx="255.1" gradientTransform="scale(1.0464 .95566)" r="28.066"/>
    <radialGradient id="t" xlink:href="#a" gradientUnits="userSpaceOnUse" cy="279.14" cx="339.74" gradientTransform="scale(1.018 .98235)" r="25.655"/>
    <radialGradient id="u" xlink:href="#a" gradientUnits="userSpaceOnUse" cy="252.83" cx="444.44" gradientTransform="scale(.84034 1.19)" r="23.612"/>
    <radialGradient id="v" xlink:href="#a" gradientUnits="userSpaceOnUse" cy="340.23" cx="271.99" gradientTransform="scale(1.1301 .88486)" r="27.429"/>
    <radialGradient id="w" xlink:href="#a" gradientUnits="userSpaceOnUse" cy="327.85" cx="213.5" gradientTransform="scale(1.1035 .90617)" r="29.404"/>
    <radialGradient id="x" xlink:href="#a" gradientUnits="userSpaceOnUse" cy="322.19" cx="149.9" gradientTransform="scale(1.0829 .92343)" r="28.051"/>
    <radialGradient id="y" xlink:href="#a" gradientUnits="userSpaceOnUse" cy="230.2" cx="141.41" gradientTransform="scale(.78847 1.2683)" r="21.513"/>
    <radialGradient id="z" xlink:href="#a" gradientUnits="userSpaceOnUse" cy="310.2" cx="132.64" gradientTransform="scale(.98055 1.0198)" r="26.634"/>
    <radialGradient id="A" xlink:href="#a" gradientUnits="userSpaceOnUse" cy="340.97" cx="186.01" gradientTransform="scale(1.0575 .94565)" r="27.88"/>
    <radialGradient id="B" xlink:href="#a" gradientUnits="userSpaceOnUse" cy="344.05" cx="261.48" gradientTransform="scale(1.0604 .94307)" r="28.94"/>
    <radialGradient id="C" xlink:href="#a" gradientUnits="userSpaceOnUse" cy="337.19" cx="328.56" gradientTransform="scale(1.0331 .96795)" r="27.553"/>
    <radialGradient id="D" xlink:href="#a" gradientUnits="userSpaceOnUse" cy="293.46" cx="442.16" gradientTransform="scale(.84836 1.1787)" r="19.051"/>
    <radialGradient id="E" xlink:href="#a" gradientUnits="userSpaceOnUse" cy="389.85" cx="284.58" gradientTransform="scale(1.0968 .91176)" r="28.26"/>
    <radialGradient id="F" xlink:href="#a" gradientUnits="userSpaceOnUse" cy="360.24" cx="229.95" gradientTransform="scale(1.0289 .97192)" r="29.845"/>
    <radialGradient id="G" xlink:href="#a" gradientUnits="userSpaceOnUse" cy="378.24" cx="151.29" gradientTransform="scale(1.0897 .91766)" r="29.696"/>
    <radialGradient id="H" xlink:href="#a" gradientUnits="userSpaceOnUse" cy="320.17" cx="120.67" gradientTransform="scale(.94247 1.061)" r="22.938"/>
    <radialGradient id="I" xlink:href="#a" gradientUnits="userSpaceOnUse" cy="281.31" cx="141.54" gradientTransform="scale(.74342 1.3451)" r="17.585"/>
    <radialGradient id="J" xlink:href="#a" gradientUnits="userSpaceOnUse" cy="398.17" cx="130.83" gradientTransform="scale(1.0474 .95477)" r="29.596"/>
    <radialGradient id="K" xlink:href="#a" gradientUnits="userSpaceOnUse" cy="407.12" cx="185.03" gradientTransform="scale(1.0846 .92196)" r="28.602"/>
    <radialGradient id="L" xlink:href="#a" gradientUnits="userSpaceOnUse" cy="405.41" cx="260.94" gradientTransform="scale(1.0649 .93906)" r="30.559"/>
    <radialGradient id="M" xlink:href="#a" gradientUnits="userSpaceOnUse" cy="350.56" cx="380.27" gradientTransform="scale(.92272 1.0837)" r="26.527"/>
    <radialGradient id="N" xlink:href="#a" gradientUnits="userSpaceOnUse" cy="429.69" cx="298.4" gradientTransform="scale(1.0598 .94359)" r="28.065"/>
    <radialGradient id="O" xlink:href="#a" gradientUnits="userSpaceOnUse" cy="430.74" cx="230.74" gradientTransform="scale(1.0517 .95086)" r="31.166"/>
    <radialGradient id="P" xlink:href="#a" gradientUnits="userSpaceOnUse" cy="440.74" cx="125.21" gradientTransform="scale(1.0638 .94001)" r="25.098"/>
    <radialGradient id="Q" xlink:href="#a" gradientUnits="userSpaceOnUse" cy="496.9" cx="207.47" gradientTransform="scale(1.1088 .90191)" r="27.878"/>
    <radialGradient id="R" xlink:href="#a" gradientUnits="userSpaceOnUse" cy="458.44" cx="274.1" gradientTransform="scale(1.0556 .94732)" r="27.821"/>
    <radialGradient id="S" xlink:href="#a" gradientUnits="userSpaceOnUse" cy="411.61" cx="354.3" gradientTransform="scale(.95476 1.0474)" r="23.185"/>
    <radialGradient id="T" xlink:href="#a" gradientUnits="userSpaceOnUse" cy="564.03" cx="249.46" gradientTransform="scale(1.2347 .80994)" r="19.532"/>
    <radialGradient id="U" xlink:href="#a" gradientUnits="userSpaceOnUse" cy="446.26" cx="164.53" gradientTransform="scale(1.0738 .93128)" r="30.451"/>
    <radialGradient id="V" xlink:href="#a" gradientUnits="userSpaceOnUse" cy="555.45" cx="148.46" gradientTransform="scale(1.2308 .81251)" r="23.456"/>
    <linearGradient id="a">
      <stop style="stop-color:#dd7d0c" offset="0"/>
      <stop style="stop-color:#d5a224" offset="1"/>
    </linearGradient>
    <linearGradient id="X" y2="170.11" gradientUnits="userSpaceOnUse" y1="164.6" gradientTransform="scale(.71139 1.4057)" x2="348.7" x1="8.49">
      <stop style="stop-color:#fff;stop-opacity:.34167" offset="0"/>
      <stop style="stop-color:#fff;stop-opacity:0" offset="1"/>
    </linearGradient>
  </defs>
  <path style="stroke-linejoin:round;fill-rule:evenodd;stroke:#000;stroke-width:10;fill:url(#b)" d="M225.35 162.88s-66.94 34.62-69.25 39.24-27.7 22.31-34.62 37.7c-6.16 13.85-18.47 52.33-23.089 80.03.77 5.38 0 70.79 9.229 80.02 9.24 9.24 86.18 66.18 111.58 68.48 25.39 7.7 60.78 6.93 77.71 1.54 27.7-11.54 46.94-27.7 56.94-38.47 10.01-30.01 38.48-109.26 38.48-134.66-5.39-18.46-13.85-48.47-29.24-78.48-19.24-43.09-137.74-63.87-137.74-55.4z" transform="translate(-89.163 -12.71)"/>
  <path style="stroke-linejoin:round;fill-rule:evenodd;stroke:#000;stroke-width:10;fill:#007300" d="M212.22 142.34c-5.74-34.6-48.23-23.47-86.82-31.92 62.79-8.34 120.06 3.04 120.06 3.04-26.57-25.898-.54-64.466-19.37-91.591 54.57 37.001 22.14 76.187 48.35 84.661-5.36-28.988 55.73-24.317 112.96-65.855-15.35 46.457-65.68 61.075-73.12 81.815 1.44 10.46 15.53 5.33 10.11 16.51 11.17 13.97 59.89-25.32 90.21-27.75-4.48 26.45-77.82 37.07-68.6 63.13-32.76-21.18-69.84-30.66-133.78-32.04z" transform="translate(-89.163 -12.71)"/>
  <path style="fill-rule:evenodd;stroke-width:1pt;fill:#0c0;fill-opacity:.5" d="M370.06 58.553c-21.14 25.213-52.07 28.866-81.13 66.397 6.84-29.945 31.68-39.807 81.13-66.397zm-134-20.125c16.32 22.852-15.27 40.163 20.63 72.862-8.2-42.131-8.26-26.037-20.63-72.862z" transform="translate(-89.163 -12.71)"/>
  <path style="stroke-linejoin:round;fill-rule:evenodd;stroke:#000;stroke-width:10;fill:#007300" d="M211.94 141.93c-5.74-34.6-48.24-23.47-86.82-31.92 62.79-8.34 103.74 5.22 103.74 5.22-26.58-25.9-75.47-70.395-94.3-97.52 54.57 37.002 105.77 82.113 131.98 90.58-5.36-28.98 58.54-20.927 84.21-88.582 18.39 21.429-45.56 79.137-53 99.872 1.44 10.46 30.73-34.038 129.13-52.01-45.6 27.628-97.35 59.84-102.77 71.02 11.17 13.97 109.89-4.07 140.21-6.5-4.48 26.45-127.82 15.82-118.6 41.88-32.76-21.18-69.84-30.66-133.78-32.04z" transform="translate(-89.163 -12.71)"/>
  <path style="fill-rule:evenodd;stroke-width:1pt;fill:#0c0;fill-opacity:.5" d="M387.21 84.354c-28.59 11.853-52.79 28.746-94.91 55.396 18.82-22.33 38.31-37.77 94.91-55.396zm73.47 52.336c-31.55 4.35-42.19 14.6-51.67 5.34 18.82-1.65-1.03.57 51.67-5.34zM337.65 47.657c-32.08 62.353-26.73 32.689-55.8 54.983 3.59-27.767 34.47-11.004 55.8-54.983zM137.33 109.2c70.73-3.26 50.49-.63 68.69 9.38-14.7-6.31 4.84-8.9-68.69-9.38zm3.71-84.985c47.88 45.704 76.41 44.052 116.32 88.795 9.24.76-76.67-46.97-116.32-88.795z" transform="translate(-89.163 -12.71)"/>
  <path style="stroke-linejoin:round;fill-rule:evenodd;stroke:#000;stroke-width:10;fill:#007300" d="M213.53 164.09c-5.74-34.6-51.27-16.64-87.93.51 47.89-50.43 104.85-27.21 104.85-27.21-26.58-25.9-39.16-67.387-107.41-75.886 84.09-14.12 118.88 60.476 145.09 68.956-5.36-28.99-13.09-35.415 12.58-103.07 18.39 21.429 26.07 93.62 18.63 114.35 1.44 10.46 68.87-70.897 180.37-35.26-50.89-8.66-148.59 43.09-154.01 54.27 11.17 13.97 86.9-48.29 110.72 16.28-30.06-17.36-98.33-6.96-89.11 19.1-32.76-21.18-69.84-30.66-133.78-32.04z" transform="translate(-89.163 -12.71)"/>
  <path style="fill-rule:evenodd;stroke-width:1pt;fill:#0c0;fill-opacity:.5" d="M147.09 153.79c67.52-30.46 56.57-22.75 96.57 4.84-28.56-3.97 1.45 7.02-24.08-4.13-16.66-26.24-36.59-14.43-72.49-.71z" transform="translate(-89.163 -12.71)"/>
  <path style="stroke-linejoin:round;fill-rule:evenodd;stroke:#000;stroke-width:10;fill:url(#c)" d="M231.92 162.16c13.15 11.1-8.03 19.51-18.81 27.58-4.19 6.53-24.31 7.78-31.68-1.79-8.53-9.88 28.87-27.59 50.49-25.79z" transform="translate(-89.163 -12.71)"/>
  <path style="stroke-linejoin:round;fill-rule:evenodd;stroke:#000;stroke-width:10;fill:url(#d)" d="M234.63 172.24c12.18-20.45 56.33-4.01 59.08 4.35-4.19 6.53-14.53 22.35-26.64 21.35-7.82-3.15-25.07-16.13-32.44-25.7z" transform="translate(-89.163 -12.71)"/>
  <path style="stroke-linejoin:round;fill-rule:evenodd;stroke:#000;stroke-width:10;fill:url(#e)" d="M325.29 204.53c-4.53-11.01-17.68-22.1-7.71-27.11 21.89 4.52 50.09 32.49 53.05 58.6-7.82-3.15-37.97-21.92-45.34-31.49z" transform="translate(-89.163 -12.71)"/>
  <path style="stroke-linejoin:round;fill-rule:evenodd;stroke:#000;stroke-width:10;fill:url(#f)" d="M274.28 198.74c2.95-11.22 12.93-23.92 25.21-28.32 17.35 4.56 24.19 23.87 26.94 32.23-4.19 6.53-10.36 29.99-22.47 28.98-7.82-3.15-22.3-23.31-29.68-32.89z" transform="translate(-89.163 -12.71)"/>
  <path style="stroke-linejoin:round;fill-rule:evenodd;stroke:#000;stroke-width:10;fill:url(#g)" d="M178.22 182.74c11.3 4.07 12.09 15.18-1.19 28.04-4.19 6.53-8.01 2.26-24.31 7.79-8.53-9.88 13.22-31.43 25.5-35.83z" transform="translate(-89.163 -12.71)"/>
  <path style="stroke-linejoin:round;fill-rule:evenodd;stroke:#000;stroke-width:10;fill:url(#h)" d="M211.19 194.14c2.95-11.22 12.92-16.23 25.21-20.63 17.35 4.56 24.19 16.18 26.94 24.53-4.2 6.54-15.61 26.43-27.71 25.43-7.83-3.15-17.07-19.75-24.44-29.33z" transform="translate(-89.163 -12.71)"/>
  <path style="stroke-linejoin:round;fill-rule:evenodd;stroke:#000;stroke-width:10;fill:url(#i)" d="M174.41 211.73c2.95-11.22 12.93-16.23 25.21-20.63 17.35 4.56 24.19 16.18 26.94 24.53-4.19 6.53-14.35 16.95-30.65 22.48-7.82-3.15-14.12-16.81-21.5-26.38z" transform="translate(-89.163 -12.71)"/>
  <path style="stroke-linejoin:round;fill-rule:evenodd;stroke:#000;stroke-width:10;fill:url(#j)" d="M245.95 221.82c2.95-11.21 9.11-20.5 21.39-24.9 17.35 4.56 32.64 21.67 35.38 30.02-4.19 6.54-20.58 21.85-32.68 20.85-7.83-3.15-16.71-16.39-24.09-25.97z" transform="translate(-89.163 -12.71)"/>
  <path style="stroke-linejoin:round;fill-rule:evenodd;stroke:#000;stroke-width:10;fill:url(#k)" d="M306.19 227.86c2.96-11.22 13.73-19.29 26.02-23.69 17.35 4.56 24.19 16.17 26.94 24.53-4.2 6.53-11.07 23.26-23.17 22.26-7.83-3.15-22.41-13.53-29.79-23.1z" transform="translate(-89.163 -12.71)"/>
  <path style="stroke-linejoin:round;fill-rule:evenodd;stroke:#000;stroke-width:10;fill:url(#l)" d="M348.9 251.09c4.19-6.53-3.27-20.49 6.71-25.5 20.9 9.86 34.12 39.51 17.83 45.04-7.83-3.15-17.16-9.97-24.54-19.54z" transform="translate(-89.163 -12.71)"/>
  <path style="stroke-linejoin:round;fill-rule:evenodd;stroke:#000;stroke-width:10;fill:url(#m)" d="M279.09 250.53c2.95-11.22 12.93-16.23 25.21-20.63 17.35 4.56 24.19 16.17 26.94 24.53-4.19 6.53-6.53 20.1-22.82 25.62-7.83-3.15-21.96-19.95-29.33-29.52z" transform="translate(-89.163 -12.71)"/>
  <path style="stroke-linejoin:round;fill-rule:evenodd;stroke:#000;stroke-width:10;fill:url(#n)" d="M197.11 240.6c2.95-11.22 17.3-28.16 36.08-24.31 12.18 5.38 26.5 16.78 26.93 24.53-4.19 6.53-9.37 21.53-25.66 27.05-16.73-2.22-29.97-17.69-37.35-27.27z" transform="translate(-89.163 -12.71)"/>
  <path style="stroke-linejoin:round;fill-rule:evenodd;stroke:#000;stroke-width:10;fill:url(#o)" d="M151.05 206.13c12.45 4.37-.02 14.17-2.7 24.37-4.19 6.53-10.89 12.58-27.18 18.11-8.53-9.88 17.59-38.08 29.88-42.48z" transform="translate(-89.163 -12.71)"/>
  <path style="stroke-linejoin:round;fill-rule:evenodd;stroke:#000;stroke-width:10;fill:url(#p)" d="M142.34 234.92c2.95-11.22 13.46-18.27 25.75-22.67 9.52 1.41 23.65 18.22 26.4 26.57-4.19 6.53-12.04 17.56-28.33 23.08-7.83-3.15-16.44-17.41-23.82-26.98z" transform="translate(-89.163 -12.71)"/>
  <path style="stroke-linejoin:round;fill-rule:evenodd;stroke:#000;stroke-width:10;fill:url(#q)" d="M111.78 261.78c2.95-11.22 16.58-20.72 28.87-25.12 17.35 4.56 20.53 20.66 23.28 29.02-4.19 6.53-17.55 15.01-33.85 20.54-7.82-3.15-10.92-14.87-18.3-24.44z" transform="translate(-89.163 -12.71)"/>
  <path style="stroke-linejoin:round;fill-rule:evenodd;stroke:#000;stroke-width:10;fill:url(#r)" d="M162.39 271.08c2.95-11.22 17.22-32.54 35.99-28.7 13.43 10.08 25.08 17.5 31.29 26.77-4.19 6.53-11.23 14.5-30.02 24.82-16.73-2.22-29.89-13.31-37.26-22.89z" transform="translate(-89.163 -12.71)"/>
  <path style="stroke-linejoin:round;fill-rule:evenodd;stroke:#000;stroke-width:10;fill:url(#s)" d="M238.57 268.22c2.96-11.22 17.39-23.78 31.72-26.55 13.43 10.07 21.69 20.97 28.17 29.22-4.19 6.53-6.25 19.08-22.54 24.61-15.93-5.28-29.97-17.7-37.35-27.28z" transform="translate(-89.163 -12.71)"/>
  <path style="stroke-linejoin:round;fill-rule:evenodd;stroke:#000;stroke-width:10;fill:url(#t)" d="M321.17 274.33c2.96-11.22 11.79-30.71 27.98-26.45 20.55 6.5 21.42 21.99 24.17 30.35-1.79 11.52-11.68 20.92-28.41 18.7-7.83-3.15-16.36-13.03-23.74-22.6z" transform="translate(-89.163 -12.71)"/>
  <path style="stroke-linejoin:round;fill-rule:evenodd;stroke:#000;stroke-width:10;fill:url(#u)" d="M355.94 302.01c2.95-11.22 12.14-27.34 24.42-31.74 14.05 12.42 17.13 38.31 6.25 56.17-19.76 4.61-23.3-14.85-30.67-24.43z" transform="translate(-89.163 -12.71)"/>
  <path style="stroke-linejoin:round;fill-rule:evenodd;stroke:#000;stroke-width:10;fill:url(#v)" d="M277.16 300.18c2.95-11.22 17.3-28.16 36.07-24.31 17.35 4.56 31.13 18 26.94 24.53-4.2 6.53-9.46 17.14-25.75 22.67-16.73-2.22-29.89-13.31-37.26-22.89z" transform="translate(-89.163 -12.71)"/>
  <path style="stroke-linejoin:round;fill-rule:evenodd;stroke:#000;stroke-width:10;fill:url(#w)" d="M203.74 297.23c2.95-11.22 17.12-22.76 31.1-28.9 15.11 8.34 39.84 22.48 35.65 29.01-4.2 6.53-11.15 18.88-27.45 24.4-16.72-2.22-31.93-14.94-39.3-24.51z" transform="translate(-89.163 -12.71)"/>
  <path style="stroke-linejoin:round;fill-rule:evenodd;stroke:#000;stroke-width:10;fill:url(#x)" d="M132.82 289.48c7.58-10 12.84-20.62 28.68-19.72 17.35 4.56 26.23 17.8 33.61 27.38-4.19 6.53-16.05 18.68-32.34 24.21-16.73-2.22-22.58-22.3-29.95-31.87z" transform="translate(-89.163 -12.71)"/>
  <path style="stroke-linejoin:round;fill-rule:evenodd;stroke:#000;stroke-width:10;fill:url(#y)" d="M114.1 262.39c17.34 4.56 10.74 20.27 13.49 28.63-4.2 6.53-10.88 20.77-27.17 26.3-8.534-9.88 1.39-50.53 13.68-54.93z" transform="translate(-89.163 -12.71)"/>
  <path style="stroke-linejoin:round;fill-rule:evenodd;stroke:#000;stroke-width:10;fill:url(#z)" d="M105.39 318.98c2.95-11.22 10.98-27.64 23.27-32.04 17.35 4.56 26.13 27.59 28.88 35.95-4.19 6.53-12.12 13.17-28.42 18.69-7.82-3.14-16.36-13.02-23.73-22.6z" transform="translate(-89.163 -12.71)"/>
  <path style="stroke-linejoin:round;fill-rule:evenodd;stroke:#000;stroke-width:10;fill:url(#A)" d="M168.2 319.5c2.95-11.21 14.99-28.77 33.76-24.92 11.65 7.43 25.97 18.83 26.4 26.57-4.19 6.53-6.52 20.1-22.82 25.63-16.72-2.22-29.96-17.7-37.34-27.28z" transform="translate(-89.163 -12.71)"/>
  <path style="stroke-linejoin:round;fill-rule:evenodd;stroke:#000;stroke-width:10;fill:url(#B)" d="M247.4 323.98c2.95-11.22 12.76-25 26.2-29.09 17.35 4.56 37.53 21.86 36.81 29.31-4.19 6.53-18.89 20.11-35.19 25.64-16.72-2.22-20.44-16.29-27.82-25.86z" transform="translate(-89.163 -12.71)"/>
  <path style="stroke-linejoin:round;fill-rule:evenodd;stroke:#000;stroke-width:10;fill:url(#C)" d="M312.1 322.46c2.96-11.22 17.31-28.16 36.08-24.31 17.35 4.56 24.7 28.31 20.51 34.84s-2.06 12.54-18.35 18.07c-16.73-2.22-30.86-19.02-38.24-28.6z" transform="translate(-89.163 -12.71)"/>
  <path style="stroke-linejoin:round;fill-rule:evenodd;stroke:#000;stroke-width:10;fill:url(#D)" d="M361.75 350.43c4.02-15.3 5.55-25.8 22.19-27.96 10.93 14.87 7.34 37.91-8.95 43.44-7.83-3.15-5.87-5.9-13.24-15.48z" transform="translate(-89.163 -12.71)"/>
  <path style="stroke-linejoin:round;fill-rule:evenodd;stroke:#000;stroke-width:10;fill:url(#E)" d="M281.9 352.68c2.95-11.22 17.3-28.16 36.07-24.31 17.35 4.56 31.13 18 26.93 24.53-4.19 6.53-4.21 20.7-20.5 26.23-16.73-2.22-35.13-16.87-42.5-26.45z" transform="translate(-89.163 -12.71)"/>
  <path style="stroke-linejoin:round;fill-rule:evenodd;stroke:#000;stroke-width:10;fill:url(#F)" d="M206.7 347.08c7.58-10 12.14-27.34 35.99-28.7 12.19 5.39 30.67 24.43 26.48 30.96s-9.64 22.54-25.93 28.07c-16.73-2.22-29.16-20.76-36.54-30.33z" transform="translate(-89.163 -12.71)"/>
  <path style="stroke-linejoin:round;fill-rule:evenodd;stroke:#000;stroke-width:10;fill:url(#G)" d="M133.1 349.53c2.95-11.22 13.21-31.42 31.9-31.96 16.01 9.67 33.52 23 35.11 31.05-4.19 6.53-13.46 18.27-29.75 23.8-16.73-2.22-29.89-13.32-37.26-22.89z" transform="translate(-89.163 -12.71)"/>
  <path style="stroke-linejoin:round;fill-rule:evenodd;stroke:#000;stroke-width:10;fill:url(#H)" d="M106.73 313.88c17.35 4.57 26.13 27.6 28.88 35.95-4.19 6.54-12.82 6.45-29.12 11.97-20.363-11.9-12.046-43.51.24-47.92z" transform="translate(-89.163 -12.71)"/>
  <path style="stroke-linejoin:round;fill-rule:evenodd;stroke:#000;stroke-width:10;fill:url(#I)" d="M97.462 353.43c17.348 4.56 14.668 14.76 17.418 23.12-4.2 6.53 9.77 17.64-6.53 23.17-8.528-9.87-17.02-38.04-10.888-46.29z" transform="translate(-89.163 -12.71)"/>
  <path style="stroke-linejoin:round;fill-rule:evenodd;stroke:#000;stroke-width:10;fill:url(#J)" d="M106.81 374.24c2.95-11.22 17.3-28.16 36.08-24.32 17.35 4.57 31.12 18.01 26.93 24.54 3.99 13.04-10.71 26.62-27.01 32.15-16.72-2.22-28.62-22.8-36-32.37z" transform="translate(-89.163 -12.71)"/>
  <path style="stroke-linejoin:round;fill-rule:evenodd;stroke:#000;stroke-width:10;fill:url(#K)" d="M170.44 376.8c2.95-11.22 18.64-33.26 37.42-29.42 17.35 4.57 29.78 23.11 25.59 29.64s-9.46 17.14-25.75 22.67c-16.73-2.22-29.88-13.32-37.26-22.89z" transform="translate(-89.163 -12.71)"/>
  <path style="stroke-linejoin:round;fill-rule:evenodd;stroke:#000;stroke-width:10;fill:url(#L)" d="M245.9 381.38c2.96-11.21 17.49-33.56 31.91-31.95 11.29 4.06 39.3 24.51 35.11 31.04-4.19 6.54-13.11 21.64-29.4 27.17-16.73-2.22-30.24-16.68-37.62-26.26z" transform="translate(-89.163 -12.71)"/>
  <path style="stroke-linejoin:round;fill-rule:evenodd;stroke:#000;stroke-width:10;fill:url(#M)" d="M328.07 379.74c2.95-11.22 18.19-26.84 30.48-31.24 28.64 8.63 20.2 64.2-7.82 57.92-7.83-3.15-15.29-17.1-22.66-26.68z" transform="translate(-89.163 -12.71)"/>
  <path style="stroke-linejoin:round;fill-rule:evenodd;stroke:#000;stroke-width:10;fill:url(#N)" d="M287.45 407.23c2.95-11.22 21.66-25.93 33.95-30.33 17.35 4.56 24.08 25.96 26.83 34.32-4.19 6.53-12.12 13.17-28.41 18.7-7.83-3.15-24.99-13.12-32.37-22.69z" transform="translate(-89.163 -12.71)"/>
  <path style="stroke-linejoin:round;fill-rule:evenodd;stroke:#000;stroke-width:10;fill:url(#O)" d="M210.8 411.41c-3.1-11.72 13.67-37.85 32.44-34 17.35 4.57 38.85 30.94 34.66 37.47s-9.46 17.15-25.75 22.67c-16.73-2.22-33.97-16.57-41.35-26.14z" transform="translate(-89.163 -12.71)"/>
  <path style="stroke-linejoin:round;fill-rule:evenodd;stroke:#000;stroke-width:10;fill:url(#P)" d="M107.86 403.6c2.95-11.22.1-9.78 12.39-14.19 17.35 4.57 38.4 37.37 41.15 45.73-22.08 4-46.16-21.96-53.54-31.54z" transform="translate(-89.163 -12.71)"/>
  <path style="stroke-linejoin:round;fill-rule:evenodd;stroke:#000;stroke-width:10;fill:url(#Q)" d="M199.92 448.54c1.54-24.68 15.52-30.81 27.71-25.43 17.34 4.57 39.67 13.71 35.29 25.65-4.19 6.53-18.62 19.09-39.27 22.38-7.83-3.15-16.36-13.03-23.73-22.6z" transform="translate(-89.163 -12.71)"/>
  <path style="stroke-linejoin:round;fill-rule:evenodd;stroke:#000;stroke-width:10;fill:url(#R)" d="M260.98 437.34c2.95-11.22 13.3-27.04 25.58-31.44 17.35 4.56 31.56 25.75 34.31 34.11-4.19 6.53-20.75 13.08-37.04 18.61-16.73-2.22-22.33-9.15-22.85-21.28z" transform="translate(-89.163 -12.71)"/>
  <path style="stroke-linejoin:round;fill-rule:evenodd;stroke:#000;stroke-width:10;fill:url(#S)" d="M318.12 431.65c2.96-11.22 28.06-21.9 40.35-26.3 8.26 10.9-6.72 39.51-24.98 47.79-7.82-3.15-7.99-11.91-15.37-21.49z" transform="translate(-89.163 -12.71)"/>
  <path style="stroke-linejoin:round;fill-rule:evenodd;stroke:#000;stroke-width:10;fill:url(#T)" d="M286.95 465.53c-6.03-14.67 9.28-13.44 21.21-21.2 9.1.32 17.64-8.93 24.82 6.04-9 10.72-40.34 26.47-46.03 15.16z" transform="translate(-89.163 -12.71)"/>
  <path style="stroke-linejoin:round;fill-rule:evenodd;stroke:#000;stroke-width:10;fill:url(#U)" d="M144.52 409.98c2.95-11.22 25.93-28.08 33.76-24.93 17.35 4.56 34.6 18.92 34.04 35.13-4.91 13.97-16.31 19.7-36.69 21.97-7.83-3.15-23.74-22.6-31.11-32.17z" transform="translate(-89.163 -12.71)"/>
  <path style="stroke-linejoin:round;fill-rule:evenodd;stroke:#000;stroke-width:10;fill:url(#V)" d="M154.92 436.25c15.05-10.22 29.1 2.2 38.27.25 7.56 4.17 13.24 15.48 20.43 30.46-16.03 4.51-53.02-19.4-58.7-30.71z" transform="translate(-89.163 -12.71)"/>
  <path style="stroke-linejoin:round;fill-rule:evenodd;stroke:#000;stroke-width:10;fill:url(#W)" d="M231.5 469.48c15.06-10.22 24.14-16.55 33.31-18.5 7.56 4.17 14.77 4.98 28.28 19.43-10.51 7.05-55.9 10.38-61.59-.93z" transform="translate(-89.163 -12.71)"/>
  <path style="fill-rule:evenodd;stroke-width:1pt;fill:#0c0;fill-opacity:.5" d="M282 42.982s-21.86 39.493-6.58 92.198c9.23.77-1.32-41.506 6.58-92.198zm147.87 61.698c-38.43 10.95-74.96 22-114.91 53 18.82-22.32 18.6-39.66 114.91-53z" transform="translate(-89.163 -12.71)"/>
  <path style="fill-rule:evenodd;fill:#0c0;fill-opacity:.5" d="M421.72 164.78c-41.7-8.9-30.26 1.65-78.91 9.8 42.76-14.71 52.92-24.13 78.91-9.8z" transform="translate(-89.163 -12.71)"/>
  <path style="fill-rule:evenodd;stroke-width:1pt;fill:#0c0;fill-opacity:.5" d="M174.43 71.213c50.17 22.897 35.97 4.488 62.65 61.847-14.67-5.76-18.92-37.645-62.65-61.847z" transform="translate(-89.163 -12.71)"/>
  <path style="fill-rule:evenodd;fill:url(#X)" d="M228.75 167.5C198.75 145 15 321.25 141.25 425c63.75-17.5-7.5-210 87.5-257.5z" transform="translate(-89.163 -12.71)"/>
</svg>
